<svg width="24" height="24" viewBox="0 0 24 24" fill="none" xmlns="http://www.w3.org/2000/svg">
<path d="M17.4398 15.37C17.3413 15.3704 17.2437 15.3511 17.1527 15.3133C17.0617 15.2756 16.9791 15.22 16.9098 15.15C16.7704 15.0089 16.6921 14.8184 16.6921 14.62C16.6921 14.4216 16.7704 14.2312 16.9098 14.09L18.9398 12.06L16.9098 10.03C16.8349 9.96168 16.7745 9.87885 16.7325 9.78652C16.6904 9.6942 16.6676 9.59431 16.6652 9.49289C16.6629 9.39148 16.6812 9.29064 16.719 9.19649C16.7567 9.10234 16.8132 9.01683 16.885 8.94513C16.9567 8.87343 17.0423 8.81704 17.1365 8.77936C17.2307 8.74168 17.3315 8.7235 17.4329 8.72592C17.5344 8.72834 17.6342 8.75131 17.7265 8.79344C17.8188 8.83557 17.9016 8.89598 17.9698 8.97102L20.5308 11.53C20.6703 11.6712 20.7485 11.8616 20.7485 12.06C20.7485 12.2584 20.6703 12.4489 20.5308 12.59L17.9698 15.153C17.9003 15.2225 17.8176 15.2775 17.7266 15.3147C17.6356 15.352 17.5381 15.3708 17.4398 15.37Z" fill="#E50202"/>
<path d="M19.9302 12.81H9.76018C9.56167 12.8087 9.37166 12.7292 9.23129 12.5889C9.09092 12.4485 9.01149 12.2585 9.01018 12.06C9.01149 11.8615 9.09092 11.6715 9.23129 11.5311C9.37166 11.3907 9.56167 11.3113 9.76018 11.31H19.9302C20.1287 11.3113 20.3187 11.3907 20.4591 11.5311C20.5994 11.6715 20.6789 11.8615 20.6802 12.06C20.6789 12.2585 20.5994 12.4485 20.4591 12.5889C20.3187 12.7292 20.1287 12.8087 19.9302 12.81Z" fill="#E50202"/>
<path d="M11.7598 20.75C10.5965 20.8035 9.43483 20.6138 8.349 20.193C7.26317 19.7722 6.27704 19.1296 5.45361 18.3062C4.63017 17.4827 3.98753 16.4966 3.56674 15.4108C3.14594 14.3249 2.95625 13.1633 3.00977 12C2.95625 10.8367 3.14594 9.67506 3.56674 8.58923C3.98753 7.5034 4.63017 6.51727 5.45361 5.69384C6.27704 4.8704 7.26317 4.22776 8.349 3.80697C9.43483 3.38618 10.5965 3.19648 11.7598 3.25C11.9583 3.25131 12.1483 3.33075 12.2886 3.47112C12.429 3.61149 12.5085 3.80149 12.5098 4C12.5085 4.19851 12.429 4.38851 12.2886 4.52888C12.1483 4.66925 11.9583 4.74869 11.7598 4.75C10.7958 4.70512 9.83302 4.86193 8.93309 5.2104C8.03316 5.55887 7.21586 6.09132 6.53348 6.77371C5.85109 7.4561 5.31864 8.27339 4.97017 9.17332C4.6217 10.0733 4.46489 11.036 4.50977 12C4.46489 12.964 4.6217 13.9267 4.97017 14.8267C5.31864 15.7266 5.85109 16.5439 6.53348 17.2263C7.21586 17.9087 8.03316 18.4411 8.93309 18.7896C9.83302 19.1381 10.7958 19.2949 11.7598 19.25C11.9587 19.25 12.1494 19.329 12.2901 19.4697C12.4307 19.6103 12.5098 19.8011 12.5098 20C12.5098 20.1989 12.4307 20.3897 12.2901 20.5303C12.1494 20.671 11.9587 20.75 11.7598 20.75Z" fill="#E50202"/>
</svg>
